<mxfile host="app.diagrams.net" agent="Mozilla/5.0 (X11; Linux x86_64) AppleWebKit/537.36 (KHTML, like Gecko) Chrome/140.0.0.0 Safari/537.36" version="28.2.5">
  <diagram name="Page-1" id="N9zs4RhzxDwlJCfDD0Sv">
    <mxGraphModel dx="433" dy="752" grid="1" gridSize="10" guides="1" tooltips="1" connect="1" arrows="1" fold="1" page="1" pageScale="1" pageWidth="850" pageHeight="1100" math="0" shadow="0">
      <root>
        <mxCell id="0" />
        <mxCell id="1" parent="0" />
        <mxCell id="3skpIZURd8e6Ydng_PCS-11" style="edgeStyle=orthogonalEdgeStyle;rounded=0;orthogonalLoop=1;jettySize=auto;html=1;labelBackgroundColor=none;strokeColor=#E07A5F;fontColor=default;" edge="1" parent="1" source="3skpIZURd8e6Ydng_PCS-1" target="3skpIZURd8e6Ydng_PCS-2">
          <mxGeometry relative="1" as="geometry" />
        </mxCell>
        <mxCell id="3skpIZURd8e6Ydng_PCS-1" value="INICIO" style="ellipse;whiteSpace=wrap;html=1;aspect=fixed;align=center;labelBorderColor=default;labelBackgroundColor=none;fillColor=#F2CC8F;strokeColor=#E07A5F;fontColor=#393C56;" vertex="1" parent="1">
          <mxGeometry x="210" y="30" width="70" height="70" as="geometry" />
        </mxCell>
        <mxCell id="3skpIZURd8e6Ydng_PCS-12" style="edgeStyle=orthogonalEdgeStyle;rounded=0;orthogonalLoop=1;jettySize=auto;html=1;entryX=0.5;entryY=0;entryDx=0;entryDy=0;labelBackgroundColor=none;strokeColor=#E07A5F;fontColor=default;" edge="1" parent="1" source="3skpIZURd8e6Ydng_PCS-2" target="3skpIZURd8e6Ydng_PCS-3">
          <mxGeometry relative="1" as="geometry">
            <mxPoint x="260" y="290" as="targetPoint" />
          </mxGeometry>
        </mxCell>
        <mxCell id="3skpIZURd8e6Ydng_PCS-2" value="Mostrar mensaje:&lt;div&gt;&amp;nbsp;&quot;Por favor, ingrese una palabra: &quot;&lt;/div&gt;" style="shape=parallelogram;perimeter=parallelogramPerimeter;whiteSpace=wrap;html=1;fixedSize=1;labelBackgroundColor=none;fillColor=#F2CC8F;strokeColor=#E07A5F;fontColor=#393C56;" vertex="1" parent="1">
          <mxGeometry x="170" y="170" width="150" height="60" as="geometry" />
        </mxCell>
        <mxCell id="3skpIZURd8e6Ydng_PCS-14" style="edgeStyle=orthogonalEdgeStyle;rounded=0;orthogonalLoop=1;jettySize=auto;html=1;labelBackgroundColor=none;strokeColor=#E07A5F;fontColor=default;" edge="1" parent="1" source="3skpIZURd8e6Ydng_PCS-7" target="3skpIZURd8e6Ydng_PCS-10">
          <mxGeometry relative="1" as="geometry" />
        </mxCell>
        <mxCell id="3skpIZURd8e6Ydng_PCS-7" value="&lt;span style=&quot;color: rgb(26, 26, 26); background-color: transparent;&quot;&gt;Mostrar mensaje: &quot;La palabra tiene&quot;, cantidad_letras, &quot;letras&quot;&lt;/span&gt;" style="shape=parallelogram;perimeter=parallelogramPerimeter;whiteSpace=wrap;html=1;fixedSize=1;labelBackgroundColor=none;fillColor=#F2CC8F;strokeColor=#E07A5F;fontColor=#393C56;" vertex="1" parent="1">
          <mxGeometry x="180" y="450" width="155" height="70" as="geometry" />
        </mxCell>
        <mxCell id="3skpIZURd8e6Ydng_PCS-8" value="" style="group;labelBackgroundColor=none;" vertex="1" connectable="0" parent="1">
          <mxGeometry x="180" y="290" width="130" height="120" as="geometry" />
        </mxCell>
        <mxCell id="3skpIZURd8e6Ydng_PCS-3" value="" style="swimlane;startSize=0;labelBackgroundColor=none;fillColor=#F2CC8F;strokeColor=#E07A5F;fontColor=#393C56;" vertex="1" parent="3skpIZURd8e6Ydng_PCS-8">
          <mxGeometry width="130" height="120" as="geometry" />
        </mxCell>
        <mxCell id="3skpIZURd8e6Ydng_PCS-5" value="&lt;span style=&quot;color: rgb(26, 26, 26);&quot;&gt;Definir la variable&amp;nbsp;&lt;/span&gt;&lt;div&gt;&lt;span style=&quot;color: rgb(26, 26, 26);&quot;&gt;cantidad_&lt;/span&gt;&lt;div&gt;&lt;span style=&quot;color: rgb(26, 26, 26);&quot;&gt;letras y  asignarle la&lt;/span&gt;&lt;/div&gt;&lt;div&gt;&lt;div&gt;&lt;span style=&quot;color: rgb(26, 26, 26);&quot;&gt;longitud de la&amp;nbsp;&lt;/span&gt;&lt;/div&gt;&lt;div&gt;&lt;span style=&quot;color: rgb(26, 26, 26);&quot;&gt;palabra asignada&lt;/span&gt;&lt;/div&gt;&lt;/div&gt;&lt;/div&gt;" style="text;html=1;align=center;verticalAlign=middle;resizable=0;points=[];autosize=1;strokeColor=none;fillColor=none;labelBackgroundColor=none;fontColor=#393C56;" vertex="1" parent="3skpIZURd8e6Ydng_PCS-8">
          <mxGeometry y="15" width="130" height="90" as="geometry" />
        </mxCell>
        <mxCell id="3skpIZURd8e6Ydng_PCS-10" value="FIN" style="ellipse;whiteSpace=wrap;html=1;aspect=fixed;labelBackgroundColor=none;fillColor=#F2CC8F;strokeColor=#E07A5F;fontColor=#393C56;" vertex="1" parent="1">
          <mxGeometry x="217.5" y="580" width="80" height="80" as="geometry" />
        </mxCell>
        <mxCell id="3skpIZURd8e6Ydng_PCS-13" style="edgeStyle=orthogonalEdgeStyle;rounded=0;orthogonalLoop=1;jettySize=auto;html=1;entryX=0.419;entryY=0.029;entryDx=0;entryDy=0;entryPerimeter=0;labelBackgroundColor=none;strokeColor=#E07A5F;fontColor=default;" edge="1" parent="1" source="3skpIZURd8e6Ydng_PCS-3" target="3skpIZURd8e6Ydng_PCS-7">
          <mxGeometry relative="1" as="geometry" />
        </mxCell>
      </root>
    </mxGraphModel>
  </diagram>
</mxfile>
